<svg width="22" height="18" viewBox="0 0 22 18" fill="none" xmlns="http://www.w3.org/2000/svg">
<path d="M22 2.38894C21.191 2.73198 20.321 2.96383 19.4081 3.06828C20.3398 2.53435 21.0552 1.6893 21.3922 0.682573C20.5202 1.17694 19.5546 1.53552 18.526 1.72881C17.7032 0.890923 16.5301 0.367188 15.232 0.367188C12.7393 0.367188 10.7189 2.29775 10.7189 4.67931C10.7189 5.01742 10.7584 5.34664 10.8357 5.66205C7.0846 5.48245 3.75901 3.76516 1.53295 1.15648C1.14443 1.79308 0.921886 2.53374 0.921886 3.32415C0.921886 4.82044 1.71835 6.14012 2.92973 6.91372C2.18992 6.89162 1.49391 6.69755 0.885376 6.37433C0.88451 6.3925 0.884504 6.41042 0.884504 6.42846C0.884504 8.51817 2.44044 10.2607 4.50492 10.6571C4.12653 10.7557 3.7279 10.8078 3.31624 10.8078C3.02512 10.8078 2.74286 10.7815 2.46681 10.7309C3.04153 12.444 4.70801 13.6909 6.68333 13.7258C5.13742 14.8826 3.19166 15.5717 1.07697 15.5717C0.712916 15.5717 0.353368 15.5512 0 15.5116C1.99818 16.7351 4.37022 17.4487 6.91929 17.4487C15.2207 17.4487 19.7597 10.8781 19.7597 5.17909C19.7597 4.99222 19.7552 4.80662 19.747 4.62168C20.6285 4.01321 21.3936 3.25391 21.999 2.38897" fill="#5C5C50"/>
</svg>
